<svg id="Capa_1" enable-background="new 0 0 512 512" height="512" viewBox="0 0 512 512" width="512" xmlns="http://www.w3.org/2000/svg"><g><g><path d="m484.5 137.861h-18.97l-24.465-118.507c-2.314-11.215-12.305-19.354-23.756-19.354-7.325 0-14.18 3.257-18.807 8.937s-6.431 13.051-4.949 20.225l22.441 108.699h-319.988l22.441-108.7c1.481-7.174-.322-14.545-4.949-20.225s-11.481-8.936-18.807-8.936c-11.45 0-21.44 8.139-23.756 19.353l-24.465 118.508h-18.97c-15.164 0-27.5 12.336-27.5 27.5v29.774c0 15.164 12.336 27.5 27.5 27.5h9.31l20.249 182.129c2.113 19.016 18.137 33.356 37.271 33.356h177.39c4.143 0 7.5-3.358 7.5-7.5s-3.357-7.5-7.5-7.5h-177.391c-11.48 0-21.094-8.604-22.362-20.014l-20.065-180.471h161.258c4.143 0 7.5-3.358 7.5-7.5s-3.357-7.5-7.5-7.5h-185.66c-6.893 0-12.5-5.607-12.5-12.5v-29.774c0-6.893 5.607-12.5 12.5-12.5h15.873l-1.804 8.737c-2.654 12.856 5.601 25.67 18.4 28.563 1.737.393 3.49.586 5.235.586 4.561 0 9.062-1.326 13.051-3.896 5.599-3.608 9.576-9.394 10.913-15.874l3.74-18.116h326.182l3.829 18.546c2.365 11.452 12.488 19.354 23.75 19.354 1.62 0 3.265-.164 4.911-.503 13.099-2.705 21.555-15.562 18.851-28.661l-1.804-8.737h15.873c6.893 0 12.5 5.607 12.5 12.5v29.774c0 6.893-5.607 12.5-12.5 12.5h-233.74c-4.143 0-7.5 3.358-7.5 7.5s3.357 7.5 7.5 7.5h209.338l-10.395 93.5c-.458 4.117 2.509 7.825 6.625 8.283 4.119.457 7.825-2.508 8.283-6.625l10.579-95.158h9.31c15.164 0 27.5-12.336 27.5-27.5v-29.774c0-15.163-12.336-27.499-27.5-27.499zm-410.021 30.083c-.528 2.562-2.113 4.858-4.349 6.298-2.102 1.354-4.534 1.813-6.853 1.288-4.883-1.104-8.031-5.993-7.019-10.899l29.367-142.245c.884-4.28 4.697-7.386 9.066-7.386 2.796 0 5.411 1.243 7.177 3.41s2.454 4.981 1.89 7.718zm374.068 7.624c-5.001 1.034-9.904-2.195-10.938-7.195l-29.367-142.245c-.564-2.737.124-5.551 1.89-7.718s4.381-3.41 7.177-3.41c4.37 0 8.183 3.106 9.066 7.386l29.366 142.245c1.031 4.998-2.195 9.905-7.194 10.937z"/><path d="m257.115 245.395h-2.23c-15.163 0-27.5 12.336-27.5 27.5v97.609c0 15.164 12.337 27.5 27.5 27.5h2.23c15.163 0 27.5-12.336 27.5-27.5v-97.609c0-15.164-12.337-27.5-27.5-27.5zm12.5 125.109c0 6.893-5.607 12.5-12.5 12.5h-2.23c-6.893 0-12.5-5.607-12.5-12.5v-97.609c0-6.893 5.607-12.5 12.5-12.5h2.23c6.893 0 12.5 5.607 12.5 12.5z"/><path d="m159.002 245.395c-15.163 0-27.5 12.336-27.5 27.5v97.609c0 15.164 12.337 27.5 27.5 27.5h2.23c15.163 0 27.5-12.336 27.5-27.5v-97.609c0-15.164-12.337-27.5-27.5-27.5zm14.73 27.5v97.609c0 6.893-5.607 12.5-12.5 12.5h-2.23c-6.893 0-12.5-5.607-12.5-12.5v-97.609c0-6.893 5.607-12.5 12.5-12.5h2.23c6.893 0 12.5 5.607 12.5 12.5z"/><path d="m372.998 317.38c4.143 0 7.5-3.358 7.5-7.5v-36.985c0-15.164-12.337-27.5-27.5-27.5h-2.23c-15.163 0-27.5 12.336-27.5 27.5v53.305c0 4.142 3.357 7.5 7.5 7.5s7.5-3.358 7.5-7.5v-53.305c0-6.893 5.607-12.5 12.5-12.5h2.23c6.893 0 12.5 5.607 12.5 12.5v36.985c0 4.142 3.357 7.5 7.5 7.5z"/><path d="m435.523 412.952h-33.669v-33.668c0-4.142-3.357-7.5-7.5-7.5s-7.5 3.358-7.5 7.5v33.668h-33.668c-4.143 0-7.5 3.358-7.5 7.5s3.357 7.5 7.5 7.5h33.668v33.668c0 4.142 3.357 7.5 7.5 7.5s7.5-3.358 7.5-7.5v-33.668h33.669c4.143 0 7.5-3.358 7.5-7.5s-3.357-7.5-7.5-7.5z"/><path d="m394.355 328.904c-50.48 0-91.549 41.068-91.549 91.548 0 50.479 41.068 91.548 91.549 91.548 50.479 0 91.548-41.068 91.548-91.548s-41.068-91.548-91.548-91.548zm-.001 168.096c-42.209 0-76.548-34.339-76.548-76.548 0-42.208 34.34-76.548 76.549-76.548s76.548 34.339 76.548 76.548-34.34 76.548-76.549 76.548z"/></g></g></svg>